<?xml version="1.0" encoding="UTF-8" standalone="no"?>
<!-- Created with Inkscape (http://www.inkscape.org/) -->

<svg
   width="841mm"
   height="1189mm"
   viewBox="0 0 841 1189"
   version="1.1"
   id="svg5"
   sodipodi:docname="slide_map.svg"
   inkscape:version="1.2.1 (9c6d41e410, 2022-07-14)"
   xmlns:inkscape="http://www.inkscape.org/namespaces/inkscape"
   xmlns:sodipodi="http://sodipodi.sourceforge.net/DTD/sodipodi-0.dtd"
   xmlns:xlink="http://www.w3.org/1999/xlink"
   xmlns="http://www.w3.org/2000/svg"
   xmlns:svg="http://www.w3.org/2000/svg">
  <sodipodi:namedview
     id="namedview7"
     pagecolor="#ffffff"
     bordercolor="#000000"
     borderopacity="0.25"
     inkscape:showpageshadow="2"
     inkscape:pageopacity="0.0"
     inkscape:pagecheckerboard="0"
     inkscape:deskcolor="#d1d1d1"
     inkscape:document-units="mm"
     showgrid="false"
     showguides="true"
     inkscape:zoom="0.25"
     inkscape:cx="616"
     inkscape:cy="1200"
     inkscape:window-width="1920"
     inkscape:window-height="1027"
     inkscape:window-x="-8"
     inkscape:window-y="-8"
     inkscape:window-maximized="1"
     inkscape:current-layer="layer1">
    <sodipodi:guide
       position="337.05777,1173.8692"
       orientation="1,0"
       id="guide4536"
       inkscape:locked="false" />
    <sodipodi:guide
       position="16.47858,853.39979"
       orientation="0,-1"
       id="guide4538"
       inkscape:locked="false" />
  </sodipodi:namedview>
  <defs
     id="defs2" />
  <g
     inkscape:label="Layer 1"
     inkscape:groupmode="layer"
     id="layer1">
    <g
       id="g1243"
       transform="translate(1293.8121,-529.16667)">
      <text
         xml:space="preserve"
         style="font-size:25.4px;font-family:'French Script MT';-inkscape-font-specification:'French Script MT, Normal';fill:#000000;fill-opacity:1;stroke:none;stroke-width:0.676;stroke-dasharray:none;stroke-opacity:1"
         x="-871.07092"
         y="-1141.79"
         id="text1173"
         transform="rotate(-90)"><tspan
           sodipodi:role="line"
           id="tspan1171"
           style="font-style:normal;font-variant:normal;font-weight:normal;font-stretch:normal;font-family:Calibri;-inkscape-font-specification:Calibri;fill:#000000;fill-opacity:1;stroke:none;stroke-width:0.676"
           x="-871.07092"
           y="-1141.79">0</tspan></text>
      <text
         xml:space="preserve"
         style="font-size:25.4px;font-family:'French Script MT';-inkscape-font-specification:'French Script MT, Normal';fill:#000000;fill-opacity:1;stroke:none;stroke-width:0.676;stroke-dasharray:none;stroke-opacity:1"
         x="-277.10312"
         y="-1445.6509"
         id="text1177"
         transform="rotate(-120)"><tspan
           sodipodi:role="line"
           id="tspan1175"
           style="font-style:normal;font-variant:normal;font-weight:normal;font-stretch:normal;font-family:Calibri;-inkscape-font-specification:Calibri;fill:#000000;fill-opacity:1;stroke:none;stroke-width:0.676"
           x="-277.10312"
           y="-1445.6509">1</tspan></text>
      <text
         xml:space="preserve"
         style="font-size:25.4px;font-family:'French Script MT';-inkscape-font-specification:'French Script MT, Normal';fill:#000000;fill-opacity:1;stroke:none;stroke-width:0.676;stroke-dasharray:none;stroke-opacity:1"
         x="390.06042"
         y="-1411.8298"
         id="text1181"
         transform="rotate(-150.00002)"><tspan
           sodipodi:role="line"
           id="tspan1179"
           style="font-style:normal;font-variant:normal;font-weight:normal;font-stretch:normal;font-family:Calibri;-inkscape-font-specification:Calibri;fill:#000000;fill-opacity:1;stroke:none;stroke-width:0.676"
           x="390.06042"
           y="-1411.8298">2</tspan></text>
      <text
         xml:space="preserve"
         style="font-size:25.4px;font-family:'French Script MT';-inkscape-font-specification:'French Script MT, Normal';fill:#000000;fill-opacity:1;stroke:none;stroke-width:0.676;stroke-dasharray:none;stroke-opacity:1"
         x="950.7215"
         y="-1049.3898"
         id="text1185"
         transform="scale(-1)"><tspan
           sodipodi:role="line"
           id="tspan1183"
           style="font-style:normal;font-variant:normal;font-weight:normal;font-stretch:normal;font-family:Calibri;-inkscape-font-specification:Calibri;fill:#000000;fill-opacity:1;stroke:none;stroke-width:0.676"
           x="950.7215"
           y="-1049.3898">3</tspan></text>
      <text
         xml:space="preserve"
         style="font-size:25.4px;font-family:'French Script MT';-inkscape-font-specification:'French Script MT, Normal';fill:#000000;fill-opacity:1;stroke:none;stroke-width:0.676;stroke-dasharray:none;stroke-opacity:1"
         x="1254.756"
         y="-454.87637"
         id="text1189"
         transform="rotate(150)"><tspan
           sodipodi:role="line"
           id="tspan1187"
           style="font-style:normal;font-variant:normal;font-weight:normal;font-stretch:normal;font-family:Calibri;-inkscape-font-specification:Calibri;fill:#000000;fill-opacity:1;stroke:none;stroke-width:0.676"
           x="1254.756"
           y="-454.87637">4</tspan></text>
      <text
         xml:space="preserve"
         style="font-size:25.4px;font-family:'French Script MT';-inkscape-font-specification:'French Script MT, Normal';fill:#000000;fill-opacity:1;stroke:none;stroke-width:0.676;stroke-dasharray:none;stroke-opacity:1"
         x="1220.9849"
         y="211.73471"
         id="text1193"
         transform="rotate(120)"><tspan
           sodipodi:role="line"
           id="tspan1191"
           style="font-style:normal;font-variant:normal;font-weight:normal;font-stretch:normal;font-family:Calibri;-inkscape-font-specification:Calibri;fill:#000000;fill-opacity:1;stroke:none;stroke-width:0.676"
           x="1220.9849"
           y="211.73471">5</tspan></text>
      <text
         xml:space="preserve"
         style="font-size:25.4px;font-family:'French Script MT';-inkscape-font-specification:'French Script MT, Normal';fill:#000000;fill-opacity:1;stroke:none;stroke-width:0.676;stroke-dasharray:none;stroke-opacity:1"
         x="858.02991"
         y="772.26617"
         id="text1197"
         transform="rotate(90)"><tspan
           sodipodi:role="line"
           id="tspan1195"
           style="font-style:normal;font-variant:normal;font-weight:normal;font-stretch:normal;font-family:Calibri;-inkscape-font-specification:Calibri;fill:#000000;fill-opacity:1;stroke:none;stroke-width:0.676"
           x="858.02991"
           y="772.26617">6</tspan></text>
      <text
         xml:space="preserve"
         style="font-size:25.4px;font-family:'French Script MT';-inkscape-font-specification:'French Script MT, Normal';fill:#000000;fill-opacity:1;stroke:none;stroke-width:0.676;stroke-dasharray:none;stroke-opacity:1"
         x="263.814"
         y="1076.524"
         id="text1201"
         transform="rotate(59.999995)"><tspan
           sodipodi:role="line"
           id="tspan1199"
           style="font-style:normal;font-variant:normal;font-weight:normal;font-stretch:normal;font-family:Calibri;-inkscape-font-specification:Calibri;fill:#000000;fill-opacity:1;stroke:none;stroke-width:0.676"
           x="263.814"
           y="1076.524">7</tspan></text>
      <text
         xml:space="preserve"
         style="font-size:25.4px;font-family:'French Script MT';-inkscape-font-specification:'French Script MT, Normal';fill:#000000;fill-opacity:1;stroke:none;stroke-width:0.676;stroke-dasharray:none;stroke-opacity:1"
         x="-402.92117"
         y="1042.5419"
         id="text1205"
         transform="rotate(29.999997)"><tspan
           sodipodi:role="line"
           id="tspan1203"
           style="font-style:normal;font-variant:normal;font-weight:normal;font-stretch:normal;font-family:Calibri;-inkscape-font-specification:Calibri;fill:#000000;fill-opacity:1;stroke:none;stroke-width:0.676"
           x="-402.92117"
           y="1042.5419">8</tspan></text>
      <text
         xml:space="preserve"
         style="font-size:25.4px;font-family:'French Script MT';-inkscape-font-specification:'French Script MT, Normal';fill:#000000;fill-opacity:1;stroke:none;stroke-width:0.676;stroke-dasharray:none;stroke-opacity:1"
         x="-963.32849"
         y="679.86603"
         id="text1209"><tspan
           sodipodi:role="line"
           id="tspan1207"
           style="font-style:normal;font-variant:normal;font-weight:normal;font-stretch:normal;font-family:Calibri;-inkscape-font-specification:Calibri;fill:#000000;fill-opacity:1;stroke:none;stroke-width:0.676"
           x="-963.32849"
           y="679.86603">9</tspan></text>
      <text
         xml:space="preserve"
         style="font-size:25.4px;font-family:'French Script MT';-inkscape-font-specification:'French Script MT, Normal';fill:#000000;fill-opacity:1;stroke:none;stroke-width:0.676;stroke-dasharray:none;stroke-opacity:1"
         x="-1274.6368"
         y="85.514252"
         id="text1213"
         transform="rotate(-29.99998)"><tspan
           sodipodi:role="line"
           id="tspan1211"
           style="font-style:normal;font-variant:normal;font-weight:normal;font-stretch:normal;font-family:Calibri;-inkscape-font-specification:Calibri;fill:#000000;fill-opacity:1;stroke:none;stroke-width:0.676"
           x="-1274.6368"
           y="85.514252">10</tspan></text>
      <text
         xml:space="preserve"
         style="font-size:25.4px;font-family:'French Script MT';-inkscape-font-specification:'French Script MT, Normal';fill:#000000;fill-opacity:1;stroke:none;stroke-width:0.676;stroke-dasharray:none;stroke-opacity:1"
         x="-1240.5679"
         y="-581.02338"
         id="text1217"
         transform="rotate(-60.000022)"><tspan
           sodipodi:role="line"
           id="tspan1215"
           style="font-style:normal;font-variant:normal;font-weight:normal;font-stretch:normal;font-family:Calibri;-inkscape-font-specification:Calibri;fill:#000000;fill-opacity:1;stroke:none;stroke-width:0.676"
           x="-1240.5679"
           y="-581.02338">11</tspan></text>
    </g>
    <path
       d="M -674.89837,356.66585 662.18869,1693.753 M -645.14464,326.91212 691.9424,1663.9992 M -615.39104,297.1585 721.69603,1634.2455 M -585.6374,267.40488 751.44965,1604.4921 M -555.88368,237.65117 781.20336,1574.7381 M -526.13007,207.89754 810.957,1544.9846 M -496.37643,178.14391 840.7106,1515.2311 M -466.62272,148.39022 870.46433,1485.4773 M -436.86911,118.63657 900.21795,1455.7237 M -407.11547,88.882959 929.97157,1425.97 M -377.36175,59.129227 959.72531,1396.2164 M -347.60814,29.375611 989.47892,1366.4626 M -317.85451,-0.3779999 1019.2325,1336.7091 M -288.1008,-30.13174 1048.9862,1306.9555 M -258.34717,-59.88535 1078.7399,1277.2016 M -228.59355,-89.638963 1108.4934,1247.4481 M -198.83983,-119.39271 1138.2472,1217.6944 M -169.08621,-149.14632 1168.0008,1187.9408 M -139.33259,-178.89992 1197.7545,1158.1871 M -109.57887,-208.65366 1227.5082,1128.4334 M -79.825247,-238.40728 1257.2618,1098.6798 M -50.071507,-268.161 1287.0155,1068.926 M -20.317894,-297.91463 1316.7692,1039.1724 M 9.4357213,-327.66823 1346.5227,1009.4188 M 39.189439,-357.42197 1376.2765,979.66504 M 68.943054,-387.17558 1406.03,949.91145 M 98.696691,-416.9292 1435.7838,920.15784 M 128.45041,-446.68294 1465.5375,890.40413 M 158.20404,-476.43656 1495.2909,860.65049 M 187.95763,-506.19015 1525.0449,830.89687 M 217.71137,-535.9439 1554.7985,801.14316 M 247.46501,-565.69752 1584.5519,771.38953 M -674.89837,356.66585 270.84625,-589.07877 m -915.99097,975.49826 945.74461,-945.7446 M -615.39106,416.17315 330.35355,-529.57146 M -585.63741,445.9268 360.1072,-499.81781 M -555.88376,475.68046 389.86086,-470.06416 M -526.1301,505.43411 419.61451,-440.3105 m -915.99094,975.49828 945.7446,-945.74461 m -915.99096,975.49826 945.7446,-945.74462 m -915.99094,975.49827 945.7446,-945.74462 m -915.99096,975.49826 945.74461,-945.7446 m -915.99095,975.49826 945.74461,-945.7446 m -915.99096,975.49826 945.74462,-945.74463 m -915.99097,975.49826 945.74461,-945.7446 M -288.10087,743.46335 657.64374,-202.28128 M -258.34722,773.21699 687.3974,-172.52762 M -228.59356,802.97064 717.15105,-142.77397 M -198.83991,832.72429 746.9047,-113.02031 M -169.08623,862.47798 776.65839,-83.266634 M -139.33262,892.23161 806.41203,-53.513007 M -109.579,921.98522 836.16562,-23.759396 M -79.825259,951.73896 865.91936,5.9943275 M -50.071647,981.49254 895.67298,35.747956 M -20.318032,1011.2462 925.42658,65.501567 M 9.4356975,1040.9999 955.18032,95.255289 M 39.189324,1070.7535 984.93394,125.00892 M 68.942984,1100.5072 1014.6876,154.76258 M 98.696586,1130.2608 1044.4413,184.51618 M 128.45033,1160.0145 1074.1949,214.26992 M 158.20393,1189.7682 1103.9485,244.02354 M 187.95756,1219.5218 1133.7021,273.77715 M 217.71129,1249.2755 1163.4559,303.53089 M 247.4649,1279.0291 1193.2096,333.2845 M 277.21851,1308.7827 1222.9631,363.03811 M 306.97225,1338.5364 1252.7169,392.79185 M 336.72587,1368.2901 1282.4705,422.54547 M 366.47947,1398.0437 1312.224,452.29908 M 396.2331,1427.7973 1341.9778,482.0527 M 425.98683,1457.5511 1371.7314,511.80642 M 455.74041,1487.3045 1401.485,541.56001 M 485.49415,1517.0584 1431.2387,571.31374 M 515.24775,1546.8121 1460.9926,601.06737 M 545.00138,1576.5655 1490.746,630.82099 M 574.75511,1606.3193 1520.4997,660.5747 M 604.50871,1636.073 1550.2535,690.32831 M 634.26235,1665.8265 1580.0069,720.08196"
       style="fill:none;stroke:#959595;stroke-width:0.42078px;stroke-opacity:1"
       id="path10655" />
    <path
       d="M -1.4966977,1.4967119 V 1190.4967 M 24.961702,1.4967119 V 1190.4967 M 51.420002,1.4967119 V 1190.4967 M 77.878302,1.4967119 V 1190.4967 M 104.3367,1.4967119 V 1190.4967 M 130.795,1.4967119 V 1190.4967 M 157.2533,1.4967119 V 1190.4967 M 183.7117,1.4967119 V 1190.4967 M 210.17,1.4967119 V 1190.4967 M 236.6283,1.4967119 V 1190.4967 M 263.0867,1.4967119 V 1190.4967 M 289.545,1.4967119 V 1190.4967 M 316.0033,1.4967119 V 1190.4967 M 342.4617,1.4967119 V 1190.4967 M 368.92,1.4967119 V 1190.4967 M 395.3783,1.4967119 V 1190.4967 M 421.8367,1.4967119 V 1190.4967 M 448.295,1.4967119 V 1190.4967 M 474.7533,1.4967119 V 1190.4967 M 501.2117,1.4967119 V 1190.4967 M 527.67,1.4967119 V 1190.4967 M 554.1284,1.4967119 V 1190.4967 M 580.5867,1.4967119 V 1190.4967 M 607.045,1.4967119 V 1190.4967 M 633.5034,1.4967119 V 1190.4967 M 659.9617,1.4967119 V 1190.4967 M 686.42,1.4967119 V 1190.4967 M 712.8784,1.4967119 V 1190.4967 M 739.3367,1.4967119 V 1190.4967 M 765.795,1.4967119 V 1190.4967 M 792.2534,1.4967119 V 1190.4967 M 818.7117,1.4967119 V 1190.4967 M -1.4966977,1.4967119 H 839.5034 M -1.4966977,27.955042 H 839.5034 M -1.4966977,54.413372 H 839.5034 M -1.4966977,80.871702 H 839.5034 M -1.4966977,107.33004 H 839.5034 M -1.4966977,133.78837 H 839.5034 M -1.4966977,160.24671 H 839.5034 M -1.4966977,186.70504 H 839.5034 M -1.4966977,213.16337 H 839.5034 M -1.4966977,239.6217 H 839.5034 M -1.4966977,266.08004 H 839.5034 M -1.4966977,292.53837 H 839.5034 M -1.4966977,318.9967 H 839.5034 M -1.4966977,345.45503 H 839.5034 M -1.4966977,371.91337 H 839.5034 M -1.4966977,398.3717 H 839.5034 M -1.4966977,424.83003 H 839.5034 M -1.4966977,451.28839 H 839.5034 M -1.4966977,477.74669 H 839.5034 M -1.4966977,504.20499 H 839.5034 M -1.4966977,530.66339 H 839.5034 M -1.4966977,557.12169 H 839.5034 M -1.4966977,583.57999 H 839.5034 M -1.4966977,610.03839 H 839.5034 M -1.4966977,636.49669 H 839.5034 M -1.4966977,662.95503 H 839.5034 M -1.4966977,689.41333 H 839.5034 M -1.4966977,715.87173 H 839.5034 M -1.4966977,742.33003 H 839.5034 M -1.4966977,768.78833 H 839.5034 M -1.4966977,795.24673 H 839.5034 M -1.4966977,821.70503 H 839.5034 M -1.4966977,848.16333 H 839.5034 M -1.4966977,874.62173 H 839.5034 M -1.4966977,901.08003 H 839.5034 M -1.4966977,927.53833 H 839.5034 M -1.4966977,953.99663 H 839.5034 M -1.4966977,980.45503 H 839.5034 M -1.4966977,1006.9133 H 839.5034 M -1.4966977,1033.3717 H 839.5034 M -1.4966977,1059.83 H 839.5034 M -1.4966977,1086.2883 H 839.5034 M -1.4966977,1112.7467 H 839.5034 M -1.4966977,1139.205 H 839.5034 M -1.4966977,1165.6633 H 839.5034"
       style="fill:none;stroke:#3a3a3a;stroke-width:0.264583px;stroke-opacity:1"
       id="path389" />
    <g
       id="g3145"
       transform="translate(561.37159,400.27033)">
      <rect
         style="fill:none;stroke:#000000;stroke-width:1.12773;stroke-dasharray:none;stroke-opacity:1"
         id="rect3139"
         width="113.87227"
         height="88.872269"
         x="126.37525"
         y="130.50926" />
      <rect
         style="fill:none;stroke:#000000;stroke-width:0.753555;stroke-dasharray:none;stroke-opacity:1"
         id="rect3141"
         width="99.246445"
         height="59.746571"
         x="133.68817"
         y="138.32214" />
    </g>
    <g
       id="g4476">
      <circle
         style="fill:none;stroke:#000000;stroke-width:1.17801;stroke-opacity:1"
         id="path111"
         cx="-1231.3553"
         cy="335.60065"
         r="229.411"
         transform="scale(-1,1)" />
      <use
         x="0"
         y="0"
         xlink:href="#g3145"
         id="use3244"
         transform="matrix(0,1,1,0,381.01417,-412.16498)" />
      <use
         x="0"
         y="0"
         xlink:href="#g3145"
         id="use3270"
         transform="matrix(0.54064078,0.84125356,0.84125356,-0.54064078,111.7304,166.26944)" />
      <use
         x="0"
         y="0"
         xlink:href="#g3145"
         id="use3272"
         transform="matrix(0.9096321,0.41541478,0.41541478,-0.9096321,197.91976,798.46532)" />
      <use
         x="0"
         y="0"
         xlink:href="#g3145"
         id="use3274"
         transform="matrix(0.98982144,-0.14231487,-0.14231487,-0.98982144,612.21767,1283.7045)" />
      <use
         x="0"
         y="0"
         xlink:href="#g3145"
         id="use3276"
         transform="matrix(0.75574947,-0.65486085,-0.65486085,-0.75574947,1223.0891,1467.9276)" />
      <use
         x="0"
         y="0"
         xlink:href="#g3145"
         id="use3278"
         transform="matrix(0.28173245,-0.959493,-0.959493,-0.28173245,1836.5872,1292.6445)" />
      <use
         x="0"
         y="0"
         xlink:href="#g3145"
         id="use3353"
         transform="matrix(-0.28173277,-0.95949291,-0.95949291,0.28173277,2257.9271,813.50709)" />
      <use
         x="0"
         y="0"
         xlink:href="#g3145"
         id="use3355"
         transform="matrix(-0.75574958,-0.65486072,-0.65486072,0.75574958,2353.3394,182.63751)" />
      <use
         x="0"
         y="0"
         xlink:href="#g3145"
         id="use3357"
         transform="matrix(-0.98982148,-0.14231458,-0.14231458,0.98982148,2092.5308,-399.66786)" />
      <use
         x="0"
         y="0"
         xlink:href="#g3145"
         id="use3378"
         transform="matrix(-0.90963198,0.41541504,0.41541504,0.90963198,1558.3057,-748.53037)" />
      <use
         x="0"
         y="0"
         xlink:href="#g3145"
         id="use3380"
         transform="matrix(-0.54064051,0.84125373,0.84125373,0.54064051,920.27508,-753.18904)" />
      <circle
         style="fill:none;stroke:#000000;stroke-width:1.02436;stroke-opacity:1"
         id="circle3455"
         cx="-1231.621"
         cy="335.35828"
         r="199.48782"
         transform="scale(-1,1)" />
    </g>
    <g
       id="g3643"
       transform="translate(-43.781011,-57.022463)">
      <rect
         style="fill:none;stroke:#000000;stroke-width:1.365;stroke-dasharray:none;stroke-opacity:1"
         id="rect3479"
         width="190"
         height="128"
         x="324.81421"
         y="328.57983" />
      <path
         style="fill:none;fill-opacity:1;stroke:#000000;stroke-width:1.469;stroke-dasharray:none;stroke-opacity:1"
         d="m 380.81316,328.57983 v 128"
         id="path3561" />
      <path
         style="fill:none;fill-opacity:1;stroke:#000000;stroke-width:1.428;stroke-dasharray:none;stroke-opacity:1"
         d="m 514.94671,392.57983 h -190.265"
         id="path3588" />
    </g>
    <rect
       style="fill:#ffffff;fill-opacity:1;stroke:none;stroke-width:0.627092;stroke-dasharray:none;stroke-opacity:1"
       id="rect2574"
       width="862.10461"
       height="522.35162"
       x="-11.973683"
       y="679.59833" />
    <circle
       style="fill:none;stroke:#000000;stroke-width:1;stroke-opacity:1;stroke-dasharray:none"
       id="circle4288"
       cx="-337.064"
       cy="335.60101"
       r="209.46222"
       transform="scale(-1,1)" />
    <g
       id="g8749">
      <path
         style="fill:none;fill-opacity:1;stroke:#696969;stroke-width:1.5796;stroke-dasharray:none;stroke-opacity:1"
         d="M -232.15146,-214.69289 V -66.692886"
         id="path8380" />
      <path
         style="fill:none;fill-opacity:1;stroke:#696969;stroke-width:1.5796;stroke-dasharray:none;stroke-opacity:1"
         d="M -42.366059,-214.69289 V -66.692886"
         id="path8454" />
      <path
         style="fill:none;fill-opacity:1;stroke:#5e5e5e;stroke-width:1.50118;stroke-dasharray:none;stroke-opacity:0.988235"
         d="M -32.126259,-204.6248 H -242.39126"
         id="path8456" />
      <path
         style="fill:none;fill-opacity:1;stroke:#5e5e5e;stroke-width:1.50118;stroke-dasharray:none;stroke-opacity:0.988235"
         d="M -32.126259,-76.760976 H -242.39126"
         id="path8665" />
      <rect
         style="fill:none;stroke:#000000;stroke-width:1.365;stroke-dasharray:none;stroke-opacity:1"
         id="rect8297"
         width="190"
         height="128"
         x="-232.25876"
         y="-204.69289" />
      <path
         style="fill:none;fill-opacity:1;stroke:#000000;stroke-width:1.469;stroke-dasharray:none;stroke-opacity:1"
         d="m -176.2598,-204.69289 v 128"
         id="path8299" />
      <path
         style="fill:none;fill-opacity:1;stroke:#000000;stroke-width:1.428;stroke-dasharray:none;stroke-opacity:1"
         d="m -42.12625,-140.69289 h -190.265"
         id="path8301" />
    </g>
    <rect
       style="fill:#000000;stroke:none;stroke-width:0.603002"
       id="rect419"
       width="55.033333"
       height="8"
       x="809.50592"
       y="530.2157" />
    <circle
       style="fill:none;stroke:#000000;stroke-width:0.947534;stroke-opacity:1"
       id="circle2981"
       cx="933.74475"
       cy="235.97792"
       r="184.52623"
       transform="scale(-1,1)" />
    <text
       xml:space="preserve"
       style="font-size:25.4px;font-family:'French Script MT';-inkscape-font-specification:'French Script MT, Normal';fill:#000000;fill-opacity:1;stroke:none;stroke-width:0.676;stroke-dasharray:none;stroke-opacity:1"
       x="-1142.9204"
       y="191.22495"
       id="text2985"><tspan
         sodipodi:role="line"
         id="tspan2983"
         style="font-style:normal;font-variant:normal;font-weight:normal;font-stretch:normal;font-family:Calibri;-inkscape-font-specification:Calibri;fill:#000000;fill-opacity:1;stroke:none;stroke-width:0.676"
         x="-1142.9204"
         y="191.22495">0</tspan></text>
    <text
       xml:space="preserve"
       style="font-size:25.4px;font-family:'French Script MT';-inkscape-font-specification:'French Script MT, Normal';fill:#000000;fill-opacity:1;stroke:none;stroke-width:0.676;stroke-dasharray:none;stroke-opacity:1"
       x="-1104.0195"
       y="369.694"
       id="text2989"><tspan
         sodipodi:role="line"
         id="tspan2987"
         style="font-style:normal;font-variant:normal;font-weight:normal;font-stretch:normal;font-family:Calibri;-inkscape-font-specification:Calibri;fill:#000000;fill-opacity:1;stroke:none;stroke-width:0.676"
         x="-1104.0195"
         y="369.694">1</tspan></text>
    <text
       xml:space="preserve"
       style="font-size:25.4px;font-family:'French Script MT';-inkscape-font-specification:'French Script MT, Normal';fill:#000000;fill-opacity:1;stroke:none;stroke-width:0.676;stroke-dasharray:none;stroke-opacity:1"
       x="-1025.7356"
       y="447.73386"
       id="text2993"><tspan
         sodipodi:role="line"
         id="tspan2991"
         style="font-style:normal;font-variant:normal;font-weight:normal;font-stretch:normal;font-family:Calibri;-inkscape-font-specification:Calibri;fill:#000000;fill-opacity:1;stroke:none;stroke-width:0.676"
         x="-1025.7356"
         y="447.73386">2</tspan></text>
    <text
       xml:space="preserve"
       style="font-size:25.4px;font-family:'French Script MT';-inkscape-font-specification:'French Script MT, Normal';fill:#000000;fill-opacity:1;stroke:none;stroke-width:0.676;stroke-dasharray:none;stroke-opacity:1"
       x="-919.12769"
       y="476.26462"
       id="text2997"><tspan
         sodipodi:role="line"
         id="tspan2995"
         style="font-style:normal;font-variant:normal;font-weight:normal;font-stretch:normal;font-family:Calibri;-inkscape-font-specification:Calibri;fill:#000000;fill-opacity:1;stroke:none;stroke-width:0.676"
         x="-919.12769"
         y="476.26462">3</tspan></text>
    <text
       xml:space="preserve"
       style="font-size:25.4px;font-family:'French Script MT';-inkscape-font-specification:'French Script MT, Normal';fill:#000000;fill-opacity:1;stroke:none;stroke-width:0.676;stroke-dasharray:none;stroke-opacity:1"
       x="-812.73383"
       y="447.57858"
       id="text3001"><tspan
         sodipodi:role="line"
         id="tspan2999"
         style="font-style:normal;font-variant:normal;font-weight:normal;font-stretch:normal;font-family:Calibri;-inkscape-font-specification:Calibri;fill:#000000;fill-opacity:1;stroke:none;stroke-width:0.676"
         x="-812.73383"
         y="447.57858">4</tspan></text>
    <text
       xml:space="preserve"
       style="font-size:25.4px;font-family:'French Script MT';-inkscape-font-specification:'French Script MT, Normal';fill:#000000;fill-opacity:1;stroke:none;stroke-width:0.676;stroke-dasharray:none;stroke-opacity:1"
       x="-734.71545"
       y="369.55142"
       id="text3005"><tspan
         sodipodi:role="line"
         id="tspan3003"
         style="font-style:normal;font-variant:normal;font-weight:normal;font-stretch:normal;font-family:Calibri;-inkscape-font-specification:Calibri;fill:#000000;fill-opacity:1;stroke:none;stroke-width:0.676"
         x="-734.71545"
         y="369.55142">5</tspan></text>
    <text
       xml:space="preserve"
       style="font-size:25.4px;font-family:'French Script MT';-inkscape-font-specification:'French Script MT, Normal';fill:#000000;fill-opacity:1;stroke:none;stroke-width:0.676;stroke-dasharray:none;stroke-opacity:1"
       x="-706.35236"
       y="263.18533"
       id="text3009"><tspan
         sodipodi:role="line"
         id="tspan3007"
         style="font-style:normal;font-variant:normal;font-weight:normal;font-stretch:normal;font-family:Calibri;-inkscape-font-specification:Calibri;fill:#000000;fill-opacity:1;stroke:none;stroke-width:0.676"
         x="-706.35236"
         y="263.18533">6</tspan></text>
    <text
       xml:space="preserve"
       style="font-size:25.4px;font-family:'French Script MT';-inkscape-font-specification:'French Script MT, Normal';fill:#000000;fill-opacity:1;stroke:none;stroke-width:0.676;stroke-dasharray:none;stroke-opacity:1"
       x="-734.92792"
       y="156.71712"
       id="text3013"><tspan
         sodipodi:role="line"
         id="tspan3011"
         style="font-style:normal;font-variant:normal;font-weight:normal;font-stretch:normal;font-family:Calibri;-inkscape-font-specification:Calibri;fill:#000000;fill-opacity:1;stroke:none;stroke-width:0.676"
         x="-734.92792"
         y="156.71712">7</tspan></text>
    <text
       xml:space="preserve"
       style="font-size:25.4px;font-family:'French Script MT';-inkscape-font-specification:'French Script MT, Normal';fill:#000000;fill-opacity:1;stroke:none;stroke-width:0.676;stroke-dasharray:none;stroke-opacity:1"
       x="-812.70905"
       y="78.66494"
       id="text3017"><tspan
         sodipodi:role="line"
         id="tspan3015"
         style="font-style:normal;font-variant:normal;font-weight:normal;font-stretch:normal;font-family:Calibri;-inkscape-font-specification:Calibri;fill:#000000;fill-opacity:1;stroke:none;stroke-width:0.676"
         x="-812.70905"
         y="78.66494">8</tspan></text>
    <text
       xml:space="preserve"
       style="font-size:25.4px;font-family:'French Script MT';-inkscape-font-specification:'French Script MT, Normal';fill:#000000;fill-opacity:1;stroke:none;stroke-width:0.676;stroke-dasharray:none;stroke-opacity:1"
       x="-883.13818"
       y="39.535297"
       id="text3021"><tspan
         sodipodi:role="line"
         id="tspan3019"
         style="font-style:normal;font-variant:normal;font-weight:normal;font-stretch:normal;font-family:Calibri;-inkscape-font-specification:Calibri;fill:#000000;fill-opacity:1;stroke:none;stroke-width:0.676"
         x="-883.13818"
         y="39.535297">9</tspan></text>
    <text
       xml:space="preserve"
       style="font-size:25.4px;font-family:'French Script MT';-inkscape-font-specification:'French Script MT, Normal';fill:#000000;fill-opacity:1;stroke:none;stroke-width:0.676;stroke-dasharray:none;stroke-opacity:1"
       x="-1003.2834"
       y="51.119286"
       id="text3025"><tspan
         sodipodi:role="line"
         id="tspan3023"
         style="font-style:normal;font-variant:normal;font-weight:normal;font-stretch:normal;font-family:Calibri;-inkscape-font-specification:Calibri;fill:#000000;fill-opacity:1;stroke:none;stroke-width:0.676"
         x="-1003.2834"
         y="51.119286">10</tspan></text>
    <text
       xml:space="preserve"
       style="font-size:25.4px;font-family:'French Script MT';-inkscape-font-specification:'French Script MT, Normal';fill:#000000;fill-opacity:1;stroke:none;stroke-width:0.676;stroke-dasharray:none;stroke-opacity:1"
       x="-1076.5897"
       y="99.650597"
       id="text3029"><tspan
         sodipodi:role="line"
         id="tspan3027"
         style="font-style:normal;font-variant:normal;font-weight:normal;font-stretch:normal;font-family:Calibri;-inkscape-font-specification:Calibri;fill:#000000;fill-opacity:1;stroke:none;stroke-width:0.676"
         x="-1076.5897"
         y="99.650597">11</tspan></text>
    <use
       x="0"
       y="0"
       xlink:href="#g3145"
       id="use815"
       transform="rotate(-90,293.83502,786.44897)" />
    <use
       x="0"
       y="0"
       xlink:href="#g3145"
       id="use817"
       transform="rotate(-120,398.24577,700.30893)" />
    <use
       x="0"
       y="0"
       xlink:href="#g3145"
       id="use819"
       transform="rotate(-150,474.67973,637.25007)" />
    <use
       x="0"
       y="0"
       xlink:href="#g3145"
       id="use821"
       transform="rotate(180,540.87349,582.63948)" />
    <use
       x="0"
       y="0"
       xlink:href="#g3145"
       id="use823"
       transform="rotate(150,607.06725,528.02889)" />
    <use
       x="0"
       y="0"
       xlink:href="#g3145"
       id="use825"
       transform="rotate(120,683.50121,464.97004)" />
    <use
       x="0"
       y="0"
       xlink:href="#g3145"
       id="use827"
       transform="rotate(90,787.91198,378.82999)" />
    <use
       x="0"
       y="0"
       xlink:href="#g3145"
       id="use829"
       transform="rotate(60.000002,968.75666,229.63112)" />
    <use
       x="0"
       y="0"
       xlink:href="#g3145"
       id="use831"
       transform="rotate(29.999997,1462.8337,-177.98795)" />
    <use
       x="0"
       y="0"
       xlink:href="#g3145"
       id="use833"
       transform="translate(-407.61898,-494.07693)" />
    <use
       x="0"
       y="0"
       xlink:href="#g3145"
       id="use835"
       transform="rotate(-29.999994,-381.08682,1343.267)" />
    <use
       x="0"
       y="0"
       xlink:href="#g3145"
       id="use813"
       transform="rotate(-60.000015,112.99045,935.64778)" />
    <circle
       style="fill:none;stroke:#000000;stroke-width:1;stroke-opacity:1;stroke-dasharray:none"
       id="circle1347"
       cx="-337.064"
       cy="335.60101"
       r="178.84915"
       transform="scale(-1,1)" />
  </g>
</svg>
